<svg width="14" height="14" viewBox="0 0 14 14" fill="none" xmlns="http://www.w3.org/2000/svg">
<g clip-path="url(#clip0_1420_5238)">
<path d="M7 9C7 9 6 9 6 9V11C6 12 5 13 4 13H3C2 13 1 12 1 11V3C1 2 2 1 3 1H4C5 1 6 2 6 3V5C6 5 7 5 7 5V3C7 2 6 1 5 0H3C2 0 1 1 0 2V12C1 13 2 14 3 14H4C5 14 6 13 7 12V10C7 9 7 9 7 9Z" fill="#C4C4C4"/>
<path d="M13.3392 5.7628L10.664 3.08763C10.6102 3.03192 10.5458 2.98748 10.4746 2.9569C10.4035 2.92633 10.3269 2.91024 10.2495 2.90957C10.172 2.90889 10.0952 2.92365 10.0235 2.95298C9.95184 2.98232 9.8867 3.02563 9.83193 3.0804C9.77716 3.13517 9.73385 3.2003 9.70452 3.27199C9.67519 3.34368 9.66043 3.42049 9.6611 3.49795C9.66178 3.5754 9.67787 3.65195 9.70844 3.72312C9.73901 3.79429 9.78345 3.85865 9.83916 3.91246L12.3253 6.39921L3.50008 6.41671C3.34537 6.41671 3.197 6.47817 3.0876 6.58757C2.97821 6.69696 2.91675 6.84534 2.91675 7.00005C2.91675 7.15476 2.97821 7.30313 3.0876 7.41253C3.197 7.52192 3.34537 7.58338 3.50008 7.58338L12.3597 7.5653L9.838 10.0876C9.78228 10.1414 9.73784 10.2058 9.70727 10.277C9.6767 10.3481 9.66061 10.4247 9.65993 10.5021C9.65926 10.5796 9.67402 10.6564 9.70335 10.7281C9.73268 10.7998 9.776 10.8649 9.83077 10.9197C9.88554 10.9745 9.95067 11.0178 10.0224 11.0471C10.094 11.0764 10.1709 11.0912 10.2483 11.0905C10.3258 11.0899 10.4023 11.0738 10.4735 11.0432C10.5447 11.0126 10.609 10.9682 10.6628 10.9125L13.338 8.2373C13.6662 7.90928 13.8507 7.46433 13.851 7.00029C13.8512 6.53625 13.6671 6.09113 13.3392 5.7628Z" fill="#C4C4C4"/>
</g>
<defs>
<clipPath id="clip0_1420_5238">
<rect width="14" height="14" fill="white"/>
</clipPath>
</defs>
</svg>

